<svg id="_001-facebook" data-name="001-facebook" xmlns="http://www.w3.org/2000/svg" width="23.462" height="23.462" viewBox="0 0 23.462 23.462">
  <defs>
    <style>
      .cls-1 {
        fill: #808184;
      }
    </style>
  </defs>
  <g id="_001-facebook-2" data-name="001-facebook" transform="translate(0 0)">
    <path id="Path_82" data-name="Path 82" class="cls-1" d="M291.149,508.668q-.147.024-.294.044Q291,508.692,291.149,508.668Zm0,0" transform="translate(-277.527 -485.359)"/>
    <path id="Path_83" data-name="Path 83" class="cls-1" d="M299.48,507.793l-.14.025Zm0,0" transform="translate(-285.622 -484.524)"/>
    <path id="Path_84" data-name="Path 84" class="cls-1" d="M277.955,510.34q-.172.019-.345.034Q277.783,510.359,277.955,510.34Zm0,0" transform="translate(-264.888 -486.954)"/>
    <path id="Path_85" data-name="Path 85" class="cls-1" d="M286.611,509.738l-.165.021Zm0,0" transform="translate(-273.319 -486.38)"/>
    <path id="Path_86" data-name="Path 86" class="cls-1" d="M306.788,506.41l-.124.026Zm0,0" transform="translate(-292.611 -483.204)"/>
    <path id="Path_87" data-name="Path 87" class="cls-1" d="M324.584,502.113l-.1.028Zm0,0" transform="translate(-309.615 -479.104)"/>
    <path id="Path_88" data-name="Path 88" class="cls-1" d="M319.168,503.543l-.109.028Zm0,0" transform="translate(-304.438 -480.469)"/>
    <path id="Path_89" data-name="Path 89" class="cls-1" d="M312.182,505.254l-.116.026Zm0,0" transform="translate(-297.766 -482.101)"/>
    <path id="Path_90" data-name="Path 90" class="cls-1" d="M273.666,511.09l-.185.014Zm0,0" transform="translate(-260.948 -487.67)"/>
    <path id="Path_91" data-name="Path 91" class="cls-1" d="M23.462,11.731A11.731,11.731,0,1,0,11.731,23.462l.206,0V14.327H9.417V11.39h2.52V9.229A3.528,3.528,0,0,1,15.7,5.357a20.747,20.747,0,0,1,2.26.115v2.62H16.421c-1.216,0-1.452.578-1.452,1.426V11.39h2.909L17.5,14.327h-2.53v8.682a11.737,11.737,0,0,0,8.493-11.278Zm0,0"/>
    <path id="Path_92" data-name="Path 92" class="cls-1" d="M265.258,511.43q-.183.012-.368.018Q265.075,511.442,265.258,511.43Zm0,0" transform="translate(-252.752 -487.994)"/>
    <path id="Path_93" data-name="Path 93" class="cls-1" d="M260.7,511.836l-.195,0Zm0,0" transform="translate(-248.567 -488.382)"/>
  </g>
</svg>
