<svg id="_008-youtube" data-name="008-youtube" xmlns="http://www.w3.org/2000/svg" width="23.462" height="23.462" viewBox="0 0 23.462 23.462">
  <defs>
    <style>
      .cls-1 {
        fill: #808184;
      }
    </style>
  </defs>
  <g id="_008-youtube-2" data-name="008-youtube" transform="translate(0 0)">
    <path id="Path_106" data-name="Path 106" class="cls-1" d="M224.113,212.435l3.816-2.2-3.816-2.2Zm0,0" transform="translate(-213.843 -198.506)"/>
    <path id="Path_107" data-name="Path 107" class="cls-1" d="M11.731,0A11.731,11.731,0,1,0,23.462,11.731,11.732,11.732,0,0,0,11.731,0Zm7.33,11.743a19.362,19.362,0,0,1-.3,3.526,1.837,1.837,0,0,1-1.292,1.292,44.587,44.587,0,0,1-5.736.3,42.992,42.992,0,0,1-5.736-.314A1.837,1.837,0,0,1,4.7,15.257a19.277,19.277,0,0,1-.3-3.526A19.349,19.349,0,0,1,4.7,8.2,1.874,1.874,0,0,1,5.995,6.9a44.587,44.587,0,0,1,5.736-.3,42.9,42.9,0,0,1,5.736.314A1.837,1.837,0,0,1,18.759,8.2a18.374,18.374,0,0,1,.3,3.538Zm0,0"/>
  </g>
</svg>
