<svg id="_010-linkedin" data-name="010-linkedin" xmlns="http://www.w3.org/2000/svg" width="23.462" height="23.462" viewBox="0 0 23.462 23.462">
  <defs>
    <style>
      .cls-1 {
        fill: #808184;
      }
    </style>
  </defs>
  <path id="_010-linkedin-2" data-name="010-linkedin" class="cls-1" d="M11.731,0A11.731,11.731,0,1,0,23.462,11.731,11.732,11.732,0,0,0,11.731,0ZM8.322,17.734H5.465v-8.6H8.322ZM6.894,7.965H6.875a1.489,1.489,0,1,1,.038-2.97,1.49,1.49,0,1,1-.019,2.97Zm11.73,9.769H15.767v-4.6c0-1.156-.414-1.944-1.447-1.944a1.564,1.564,0,0,0-1.466,1.045,1.956,1.956,0,0,0-.094.7v4.8H9.9s.037-7.789,0-8.6H12.76v1.217a2.836,2.836,0,0,1,2.575-1.419c1.88,0,3.289,1.228,3.289,3.869Zm0,0" transform="translate(0 0)"/>
</svg>
