<svg id="_011-instagram" data-name="011-instagram" xmlns="http://www.w3.org/2000/svg" width="23.462" height="23.462" viewBox="0 0 23.462 23.462">
  <defs>
    <style>
      .cls-1 {
        fill: #808184;
      }
    </style>
  </defs>
  <g id="_011-instagram-2" data-name="011-instagram" transform="translate(0 0)">
    <path id="Path_69" data-name="Path 69" class="cls-1" d="M211.491,209.245A2.245,2.245,0,1,1,209.245,207,2.245,2.245,0,0,1,211.491,209.245Zm0,0" transform="translate(-197.514 -197.514)"/>
    <path id="Path_70" data-name="Path 70" class="cls-1" d="M146.258,137.038a2.231,2.231,0,0,0-1.278-1.278,3.727,3.727,0,0,0-1.251-.232c-.71-.032-.923-.039-2.722-.039s-2.012.007-2.722.039a3.729,3.729,0,0,0-1.251.232,2.232,2.232,0,0,0-1.279,1.278,3.728,3.728,0,0,0-.232,1.251c-.032.71-.039.923-.039,2.722s.007,2.012.039,2.722a3.726,3.726,0,0,0,.232,1.251,2.231,2.231,0,0,0,1.278,1.278,3.722,3.722,0,0,0,1.251.232c.71.032.923.039,2.722.039s2.012-.007,2.722-.039a3.723,3.723,0,0,0,1.251-.232,2.231,2.231,0,0,0,1.278-1.278,3.73,3.73,0,0,0,.232-1.251c.032-.71.039-.923.039-2.722s-.007-2.012-.039-2.722A3.722,3.722,0,0,0,146.258,137.038Zm-5.251,7.432a3.459,3.459,0,1,1,3.459-3.459A3.459,3.459,0,0,1,141.007,144.47Zm3.6-6.246a.808.808,0,1,1,.808-.808A.808.808,0,0,1,144.6,138.224Zm0,0" transform="translate(-129.276 -129.28)"/>
    <path id="Path_71" data-name="Path 71" class="cls-1" d="M11.731,0A11.731,11.731,0,1,0,23.462,11.731,11.732,11.732,0,0,0,11.731,0Zm6.7,14.508a4.942,4.942,0,0,1-.313,1.635,3.444,3.444,0,0,1-1.97,1.97,4.946,4.946,0,0,1-1.635.313c-.718.033-.948.041-2.777.041s-2.059-.008-2.777-.041a4.946,4.946,0,0,1-1.635-.313,3.444,3.444,0,0,1-1.97-1.97,4.941,4.941,0,0,1-.313-1.635c-.033-.719-.041-.948-.041-2.777S5,9.672,5.035,8.954a4.943,4.943,0,0,1,.313-1.635,3.447,3.447,0,0,1,1.97-1.97,4.947,4.947,0,0,1,1.635-.313c.718-.033.948-.041,2.777-.041s2.059.008,2.777.041a4.948,4.948,0,0,1,1.635.313,3.445,3.445,0,0,1,1.97,1.97,4.942,4.942,0,0,1,.313,1.635c.033.718.04.948.04,2.777S18.459,13.79,18.427,14.508Zm0,0"/>
  </g>
</svg>
