<svg id="_012-messenger" data-name="012-messenger" xmlns="http://www.w3.org/2000/svg" width="23.462" height="23.462" viewBox="0 0 23.462 23.462">
  <defs>
    <style>
      .cls-1 {
        fill: #808184;
      }
    </style>
  </defs>
  <g id="_012-messenger-2" data-name="012-messenger" transform="translate(0 0)">
    <path id="Path_112" data-name="Path 112" class="cls-1" d="M162.422,210.211l-3.8,4.025,3.459-1.9,1.808,1.9,3.78-4.025-3.421,1.865Zm0,0" transform="translate(-151.352 -200.578)"/>
    <path id="Path_113" data-name="Path 113" class="cls-1" d="M11.731,0A11.731,11.731,0,1,0,23.462,11.731,11.732,11.732,0,0,0,11.731,0Zm.092,18.011a7.534,7.534,0,0,1-2.087-.292L7.37,19.063v-2.53a6.406,6.406,0,0,1-2.6-5.1,6.825,6.825,0,0,1,7.049-6.577,6.825,6.825,0,0,1,7.049,6.577,6.825,6.825,0,0,1-7.049,6.577Zm0,0"/>
  </g>
</svg>
