<svg xmlns="http://www.w3.org/2000/svg" width="23" height="23" viewBox="0 0 23 23">
  <g id="Group_24" data-name="Group 24" transform="translate(-518 -814)">
    <circle id="Ellipse_2" data-name="Ellipse 2" cx="11.5" cy="11.5" r="11.5" transform="translate(518 814)" fill="#808184"/>
    <g id="_500px-brands" data-name="500px-brands" transform="translate(529.5 825.5)">
      <path id="_500px-brands-2" data-name="500px-brands" d="M1.941,9.119c-.177-.387-.188-.5.2-.629.7-.218.218.251,1.177,1.34h.008V7.272A2.663,2.663,0,0,1,8.649,7.4a2.682,2.682,0,0,1-3.5,2.541c-.286-.114-.057-.863.232-.779,1.444,0,2.435-.275,2.435-1.754A1.834,1.834,0,0,0,4.632,6.191c-.64.719-.479,1.147-.479,4.293A3.584,3.584,0,0,0,8.513,4.862a3.61,3.61,0,0,0-5.088,0,8.509,8.509,0,0,0-.577.651l-.014.016c-.09.128-.172.248-.547.166C2.1,5.649,1.9,5.537,1.9,5.374V.286A.285.285,0,0,1,2.183,0H8.755c.226,0,.226.316.226.411s0,.411-.226.411H2.676v3.62h.008a4.435,4.435,0,0,1,7.7,2.966c0,4.851-6.668,6-8.446,1.71Zm1.724-7.1c-.014.114.125.667.4.561a5.594,5.594,0,0,1,5.7,1.1c.131,0,.621-.417.389-.621C7.617.632,3.768,1.5,3.665,2.016Zm6.166,9.021A5.309,5.309,0,0,1,.789,8.2c0-.332-.828-.2-.787.09a6.11,6.11,0,0,0,10.394,3.3c.188-.212-.343-.774-.564-.556ZM4.945,8.092c0,.109.117.2.15.232a.353.353,0,0,0,.232.12c.1,0,.071.005.607-.531.534.526.52.531.607.531.147,0,.5-.283.291-.5l-.471-.471.5-.5c.172-.185-.275-.594-.441-.428l-.488.488c-.507-.512-.5-.531-.586-.531-.136,0-.49.319-.338.471l.5.5C5.008,7.964,4.945,8,4.945,8.092Z" transform="translate(-5.217 -6.714)" fill="#fff"/>
    </g>
  </g>
</svg>
