<svg xmlns="http://www.w3.org/2000/svg" width="23" height="23" viewBox="0 0 23 23">
  <g id="Group_23" data-name="Group 23" transform="translate(-485 -814)">
    <circle id="Ellipse_1" data-name="Ellipse 1" cx="11.5" cy="11.5" r="11.5" transform="translate(485 814)" fill="#808184"/>
    <g id="_007-behance" data-name="007-behance" transform="translate(499.582 827.276)">
      <g id="_007-behance-2" data-name="007-behance" transform="translate(-10.741 -6.714)">
        <path id="Path_125" data-name="Path 125" d="M8.141,11.379A2.337,2.337,0,0,0,6.366,8.926,2.075,2.075,0,0,0,7.694,6.9c0-1.931-1.443-2.4-3.109-2.4H0v9.694H4.713c1.767,0,3.427-.845,3.427-2.814Zm-6-5.224H4.143c.771,0,1.465.216,1.465,1.108,0,.823-.54,1.154-1.3,1.154H2.137Zm0,6.393V9.878h2.33c.941,0,1.536.391,1.536,1.384s-.711,1.285-1.58,1.285Z" transform="translate(0 -4.5)" fill="#fff"/>
        <path id="Path_126" data-name="Path 126" d="M16.927,15.662a3.138,3.138,0,0,0,3.3-2.361H18.516a1.6,1.6,0,0,1-1.528.916,1.589,1.589,0,0,1-1.729-1.786h5.079c.161-2.251-1.093-4.169-3.411-4.169a3.532,3.532,0,0,0-3.6,3.715A3.425,3.425,0,0,0,16.927,15.662Zm-.061-5.944a1.439,1.439,0,0,1,1.542,1.5H15.261A1.51,1.51,0,0,1,16.867,9.719Z" transform="translate(-4.55 -5.785)" fill="#fff"/>
        <path id="Path_127" data-name="Path 127" d="M15.667,5.273H19.61v.955H15.667Z" transform="translate(-5.35 -4.764)" fill="#fff"/>
      </g>
    </g>
  </g>
</svg>
