<svg id="github-logo" xmlns="http://www.w3.org/2000/svg" width="24.05" height="23.462" viewBox="0 0 24.05 23.462">
  <defs>
    <style>
      .cls-1 {
        fill: #808184;
      }
    </style>
  </defs>
  <g id="github-logo-2" data-name="github-logo" transform="translate(0 0)">
    <path id="Path_110" data-name="Path 110" class="cls-1" d="M22.437,11.354a11.973,11.973,0,0,0-4.376-4.376,11.762,11.762,0,0,0-6.036-1.613A11.763,11.763,0,0,0,5.989,6.978a11.971,11.971,0,0,0-4.376,4.376A11.763,11.763,0,0,0,0,17.39a11.686,11.686,0,0,0,2.294,7.069A11.777,11.777,0,0,0,8.22,28.8a.7.7,0,0,0,.626-.109.612.612,0,0,0,.2-.47q0-.047-.008-.845t-.008-1.393l-.36.062A4.594,4.594,0,0,1,7.8,26.1a6.621,6.621,0,0,1-1.088-.11,2.432,2.432,0,0,1-1.049-.469,1.987,1.987,0,0,1-.689-.963l-.157-.36a3.912,3.912,0,0,0-.493-.8,1.889,1.889,0,0,0-.681-.595l-.11-.078a1.149,1.149,0,0,1-.2-.188.859.859,0,0,1-.141-.219q-.047-.11.078-.18a1.015,1.015,0,0,1,.454-.07l.313.047a2.286,2.286,0,0,1,.775.376,2.527,2.527,0,0,1,.759.814,2.76,2.76,0,0,0,.869.979,1.843,1.843,0,0,0,1.025.337,4.453,4.453,0,0,0,.892-.078,3.114,3.114,0,0,0,.7-.235A2.537,2.537,0,0,1,9.833,22.7a10.721,10.721,0,0,1-1.6-.282A6.39,6.39,0,0,1,6.756,21.8,4.215,4.215,0,0,1,5.5,20.756a5.041,5.041,0,0,1-.822-1.644,7.818,7.818,0,0,1-.321-2.349A4.567,4.567,0,0,1,5.59,13.538a4.209,4.209,0,0,1,.11-3.194,2.194,2.194,0,0,1,1.347.211,9.414,9.414,0,0,1,1.307.6q.415.25.665.423a11.308,11.308,0,0,1,6.013,0l.595-.376a8.427,8.427,0,0,1,1.44-.689,2.052,2.052,0,0,1,1.269-.172,4.169,4.169,0,0,1,.125,3.194A4.568,4.568,0,0,1,19.7,16.763a7.905,7.905,0,0,1-.321,2.356,4.845,4.845,0,0,1-.829,1.644A4.377,4.377,0,0,1,17.279,21.8a6.4,6.4,0,0,1-1.472.611,10.71,10.71,0,0,1-1.6.282,2.789,2.789,0,0,1,.814,2.223v3.3a.624.624,0,0,0,.2.47.68.68,0,0,0,.618.109,11.776,11.776,0,0,0,5.927-4.345,11.689,11.689,0,0,0,2.294-7.069A11.772,11.772,0,0,0,22.437,11.354Z" transform="translate(0 -5.365)"/>
  </g>
</svg>
